<svg width="50" height="50" viewBox="0 0 50 50" fill="none" xmlns="http://www.w3.org/2000/svg">
<g clip-path="url(#clip0_404_261)">
<path d="M25 50C38.8071 50 50 38.8071 50 25C50 11.1929 38.8071 0 25 0C11.1929 0 0 11.1929 0 25C0 38.8071 11.1929 50 25 50Z" fill="#F0F0F0"/>
<path d="M7.32225 42.6777C-2.44083 32.9146 -2.44083 17.0854 7.32225 7.32227C7.32157 7.32334 21.7391 25 21.7391 25L7.32225 42.6777Z" fill="black"/>
<path d="M21.7391 25L3.3157 12.5501C2.74451 13.543 2.2408 14.5793 1.80798 15.652L11.135 25.0001L1.80828 34.3487C2.2407 35.4206 2.74392 36.4563 3.31472 37.4484L21.7391 25Z" fill="#FFDA44"/>
<path d="M49.7884 21.7391H21.7385L7.32208 7.32263C5.76857 8.87615 4.41886 10.6331 3.31573 12.5502L15.7414 25L3.31476 37.4482C4.41788 39.3658 5.76818 41.1233 7.32208 42.6772L21.7385 28.2608H49.7884C49.9274 27.1934 50 26.1052 50 25C50 23.8948 49.9274 22.8065 49.7884 21.7391V21.7391Z" fill="#6DA544"/>
<path d="M9.77911 44.8318C13.9948 48.0722 19.2719 50 25 50C36.5507 50 46.27 42.1659 49.1388 31.5218H23.0892L9.77911 44.8318Z" fill="#0052B4"/>
<path d="M49.1388 18.4782C46.27 7.83408 36.5507 0 25 0C19.2719 0 13.9948 1.92783 9.77911 5.16826L23.0891 18.4782H49.1388Z" fill="#D80027"/>
</g>
<defs>
<clipPath id="clip0_404_261">
<rect width="50" height="50" fill="white"/>
</clipPath>
</defs>
</svg>
